<svg width="24" height="24" viewBox="0 0 24 24" fill="none" xmlns="http://www.w3.org/2000/svg">
<path fill-rule="evenodd" clip-rule="evenodd" d="M15.9921 12.6465L13.456 11.7812L15.5107 10.9578L18.0398 11.8644L15.9921 12.6465ZM12.0089 18.9368L9.3751 17.6931L11.9949 16.6397L14.7042 17.7754L12.0089 18.9368ZM11.9959 5.0489L14.0427 5.82723L12.0019 6.56327L9.96351 5.79982L11.9959 5.0489ZM15.0007 10.0705L12.499 11.0736V7.4614L15.0007 6.55887V10.0705ZM12.499 15.7527V12.526L15.5011 13.55V17.0112L12.499 15.7527ZM8.49348 13.5588L11.4983 12.5273V15.7473L8.49348 16.9554V13.5588ZM8.49115 10.9818L10.5332 11.7869L8.01014 12.6529L5.98072 11.7669L8.49115 10.9818ZM11.4983 7.457V11.078L9.01051 10.0976V6.52503L11.4983 7.457ZM5.0007 12.4444L7.49278 13.5321V16.8045L5.0007 15.6275V12.4444ZM19.9999 11.861C20.0045 11.6485 19.8765 11.4451 19.6623 11.369L16.0014 10.0566V5.83975C16.0014 5.62825 15.8723 5.43874 15.6768 5.36463L12.1744 4.03232C12.0626 3.98968 11.9392 3.98934 11.8275 4.03063L8.33904 5.31928C8.14123 5.39238 8.00981 5.58324 8.00981 5.79644V10.0702L4.35291 11.2133C4.1431 11.279 4 11.4759 4 11.6986V15.951C4 16.1476 4.12008 16.3314 4.2892 16.4112L11.7888 19.9527C11.9199 20.0146 12.0683 20.0146 12.1954 19.9594L18.6529 17.1767C18.6529 17.1764 18.6529 17.1764 18.6529 17.1764L19.9779 16.6055C20.0035 16.5943 19.9862 16.531 19.9749 16.5033C19.9482 16.44 19.4098 16.0322 19.1793 15.9507C19.0065 15.8894 18.8431 15.9916 18.6599 16.0705C18.0955 16.3138 16.9291 16.8167 16.5018 17.0007V13.5365L18.9992 12.5825C18.9992 13.5984 18.9992 13.2938 18.9988 13.8583C18.9988 14.0603 18.9702 14.2529 19.0936 14.3903C19.2574 14.5734 19.8381 14.9168 19.9058 14.9168C19.9355 14.9168 19.9995 14.908 19.9995 14.88V13.4201C19.9995 13.4201 19.9999 13.4197 19.9999 13.4194V11.861Z" fill="#ED7000"/>
</svg>
